<svg width="57" height="52" viewBox="0 0 57 52" fill="none" xmlns="http://www.w3.org/2000/svg">
<path d="M40.7378 20.6487C41.1187 22.919 42.4743 24.5961 44.4324 25.7568C46.2201 26.821 48.0446 27.8199 49.8322 28.8784C54.5329 31.6964 56.8776 36.5406 56.0676 41.6969C55.2661 46.7681 51.5886 50.5623 46.1831 51.74C43.0882 52.4126 40.1751 51.74 37.4496 50.1877C35.8468 49.2796 34.2439 48.363 32.6637 47.4151C29.6256 45.5904 26.6074 45.5734 23.5523 47.3924C21.6851 48.5049 19.8207 49.6343 17.8683 50.5964C11.9342 53.5505 4.92579 51.4903 1.70296 45.9338C-1.63639 40.2099 0.0631239 33.0529 5.68176 29.3467C7.46938 28.1803 9.34226 27.1615 11.1952 26.1144C14.2731 24.3748 15.7908 21.7725 15.7851 18.228C15.7851 15.7222 15.6913 13.1937 15.9982 10.7191C16.7656 4.45319 22.2819 -0.195179 28.4433 0.0063073C31.5554 0.0869786 34.5213 1.34159 36.7444 3.51767C38.9674 5.69376 40.2826 8.62983 40.4252 11.7351C40.4991 13.0064 40.4252 14.2891 40.4252 15.5661C40.4186 17.2653 40.523 18.9631 40.7378 20.6487ZM34.8151 22.3514C34.8151 18.6622 34.9828 14.973 34.764 11.2839C34.5679 7.97494 31.453 5.52589 27.9659 5.52022C24.959 5.52022 21.7959 8.07427 21.4946 11.054C21.2616 13.3498 21.3781 15.6853 21.4293 18.001C21.452 19.1361 22.441 19.6015 23.4499 19.0255C24.7516 18.2819 25.3456 17.0844 25.3967 15.6201C25.4393 14.5332 25.3967 13.4434 25.4223 12.3566C25.4592 10.7503 26.633 9.49035 28.108 9.43926C29.583 9.38818 30.8477 10.5489 30.9159 12.2147C30.9859 13.7287 30.9517 15.2458 30.8136 16.7552C30.5294 19.593 29.1567 21.8434 26.8348 23.4752C25.9822 24.0711 25.05 24.5394 24.1491 25.0587C19.0789 27.9902 13.9804 30.8848 8.93869 33.856C5.85512 35.6835 4.71548 39.2166 6.06259 42.3127C7.43243 45.4627 10.8514 47.3045 14.0941 46.1722C16.3677 45.3747 18.4821 43.9899 20.5653 42.7043C21.6623 42.0289 21.4407 40.6043 20.176 40.3489C18.9558 40.1376 17.7033 40.2095 16.5155 40.5589C15.4099 40.8711 14.4607 41.6941 13.3893 42.2162C12.7741 42.5384 12.0563 42.6046 11.3924 42.4005C10.7285 42.1964 10.1724 41.7384 9.84529 41.1265C9.14616 39.9516 9.36499 38.3596 10.5586 37.5877C15.066 34.6789 18.5162 32.5875 24.8056 36.4242C30.0917 39.6423 35.4915 42.6674 40.8913 45.7039C43.9095 47.3924 47.7462 46.3112 49.6305 43.4337C51.5147 40.5561 50.9037 36.3845 48.1071 34.398C46.3451 33.1437 44.4125 32.1277 42.4828 31.1146C41.3233 30.5017 40.394 31.2054 40.4934 32.5335C40.5374 33.1729 40.7376 33.7917 41.0764 34.3359C41.4153 34.88 41.8826 35.333 42.4374 35.6552C43.3553 36.2227 44.3273 36.7307 45.2424 37.3181C46.7714 38.2972 47.2005 39.8296 46.3792 41.2202C45.646 42.4773 44.0175 42.8718 42.5169 42.0885C41.5137 41.5635 40.5503 40.9534 39.5783 40.3858C36.8841 38.7683 35.2101 36.4129 35.0567 33.2714C34.8833 29.6276 34.8833 22.3401 34.8151 22.3401V22.3514Z" fill="#212529"/>
</svg>
