<svg width="36" height="36" viewBox="0 0 36 36" fill="none" xmlns="http://www.w3.org/2000/svg">
<path d="M18.0566 4.93555C10.6464 4.93555 4.61584 10.744 4.61323 17.8825C4.61148 20.1653 5.23161 22.3932 6.40742 24.3555L4.5 31.0646L11.6271 29.2643C13.6096 30.3013 15.814 30.8423 18.0514 30.8407H18.0566C25.4668 30.8407 31.4974 25.0314 31.5 17.8929C31.5017 14.4352 30.1047 11.1804 27.5658 8.73384C25.0278 6.28642 21.6528 4.93642 18.0566 4.93555ZM18.0566 28.6537H18.0523C16.0473 28.6537 14.0806 28.1346 12.3648 27.1539L11.9555 26.9205L7.72781 27.9883L8.85658 24.0167L8.59094 23.61C7.47514 21.9082 6.88117 19.9174 6.8821 17.8825C6.88471 11.9486 11.898 7.12255 18.061 7.12255C21.0449 7.12342 23.8503 8.24435 25.9606 10.2781C28.071 12.3118 29.232 15.0161 29.2303 17.8921C29.2276 23.826 24.2152 28.6537 18.0557 28.6537H18.0566ZM24.1856 20.5929C23.8494 20.4318 22.1981 19.6488 21.8897 19.5399C21.5823 19.4328 21.3585 19.3771 21.1346 19.7011C20.9116 20.0251 20.2671 20.7541 20.072 20.9692C19.8752 21.1852 19.6792 21.2113 19.343 21.0502C19.0068 20.8882 17.9242 20.5468 16.6422 19.4441C15.6432 18.5871 14.969 17.528 14.7731 17.2031C14.5771 16.88 14.7522 16.7049 14.9203 16.5438C15.0709 16.4001 15.2565 16.1667 15.4237 15.9777C15.5909 15.7887 15.6466 15.6537 15.7599 15.4377C15.8714 15.2225 15.8156 15.0327 15.7311 14.8715C15.6466 14.7087 14.976 13.1165 14.6947 12.4694C14.4229 11.8388 14.146 11.9233 13.9395 11.9129C13.7436 11.9042 13.5206 11.9015 13.295 11.9015C13.0729 11.9015 12.708 11.9825 12.3997 12.3065C12.0922 12.6305 11.2239 13.4127 11.2239 15.0048C11.2239 16.5978 12.4275 18.1359 12.5956 18.3519C12.7637 18.5671 14.9647 21.8358 18.3345 23.2381C19.1357 23.5699 19.7611 23.7694 20.2497 23.9192C21.0545 24.1656 21.787 24.1299 22.3653 24.0472C23.0098 23.954 24.3528 23.2651 24.6315 22.5099C24.912 21.7548 24.912 21.1068 24.8284 20.9718C24.7465 20.8368 24.5218 20.7558 24.1856 20.5929Z" fill="#F8F9FA"/>
</svg>
